# xmcd
#
# Track frame offsets:
#	150
#	14689
#	30652
#	45594
#	59896
#	72225
#	88049
#	104230
#	116917
#	128570
#	142613
#	158960
#	173289
#	187677
#	200370
#	216531
#	234108
#	247951
#	265507
#	281398
#
# Disc length: 3987 seconds
#
# Revision: 0
# Processed by: cddbd v1.5.1PL0 Copyright (c) Steve Scherf et al.
# Submitted via: dBpowerAMP V4.0
#
DISCID=150f9114
DTITLE=Delley and Dorivan -- Ronaldo Viola and Praiano - Dose Dupla
DYEAR=1999
DGENRE=Country
TTITLE0=Aconteceu Comigo
TTITLE1=Em Clima de Rodeio
TTITLE2=Marcas de Amor
TTITLE3=Brasil Tem Solução
TTITLE4=Passeio do Gado
TTITLE5=Reis dos Reis
TTITLE6=Sem Você Não Sei  Viver
TTITLE7=Silicone
TTITLE8=Sistema Bruto
TTITLE9=Tô Doidão
TTITLE10=Pescaria
TTITLE11=Rei da Pecuária
TTITLE12=Se Não Aguento Não Vendo
TTITLE13=O Mesmo Contigo
TTITLE14=Jeitão de Caboclo
TTITLE15=Desatino
TTITLE16=Duelo de Gaitão
TTITLE17=Parceria com Deus
TTITLE18=Paixão Desenfreada
TTITLE19=Irresistível Paixão
EXTD=
EXTT0=
EXTT1=
EXTT2=
EXTT3=
EXTT4=
EXTT5=
EXTT6=
EXTT7=
EXTT8=
EXTT9=
EXTT10=
EXTT11=
EXTT12=
EXTT13=
EXTT14=
EXTT15=
EXTT16=
EXTT17=
EXTT18=
EXTT19=
PLAYORDER=
